PathFileType	4	(X/Y/Z)	/Users/niels/Desktop/University/Third Semester/Perception and Action/Exam/Gymnastics Motion Tracking/Code for Gym Tracking/Analyzed Data/Webcam_Backflip/id4_3_pure_Sports2D/id4_3_pure_Sports2D_px_person00.trc
DataRate	CameraRate	NumFrames	NumMarkers	Units	OrigDataRate	OrigDataStartFrame	OrigNumFrames
29.81132075471698	29.81132075471698	10	22	m	29.81132075471698	19	159
Frame#	Time	Hip			RHip			RKnee			RAnkle			RBigToe			RSmallToe			RHeel			LHip			LKnee			LAnkle			LBigToe			LSmallToe			LHeel			Neck			Head			Nose			RShoulder			RElbow			RWrist			LShoulder			LElbow			LWrist		
		X1	Y1	Z1	X2	Y2	Z2	X3	Y3	Z3	X4	Y4	Z4	X5	Y5	Z5	X6	Y6	Z6	X7	Y7	Z7	X8	Y8	Z8	X9	Y9	Z9	X10	Y10	Z10	X11	Y11	Z11	X12	Y12	Z12	X13	Y13	Z13	X14	Y14	Z14	X15	Y15	Z15	X16	Y16	Z16	X17	Y17	Z17	X18	Y18	Z18	X19	Y19	Z19	X20	Y20	Z20	X21	Y21	Z21	X22	Y22	Z22
19	0.6373417721518987	0.935006335896846	-0.5177455225103197	0.0	0.9313417752409907	-0.5185506174225778	0.0	0.9771876065094779	-0.6255415094708795	0.0	0.9627107721456827	-0.7361574845487947	0.0	0.9957870022946623	-0.764521374076611	0.0	0.9849133333832198	-0.7660565875309501	0.0	0.95156098739739	-0.7509750289891403	0.0	0.9331445054530098	-0.5164760386911107	0.0	0.9746915541072766	-0.6255696750610332	0.0	0.9630962317921472	-0.7359716169160648	0.0	0.9953983453365005	-0.7643007641455815	0.0	0.9912594458138669	-0.7590881759826164	0.0	0.9483786722377897	-0.7525909559492248	0.0	1.0075172784663635	-0.39197029995873495	0.0	1.0623974636379772	-0.3492135743203255	0.0	1.0526930377496033	-0.3744586232763555	0.0	1.0021231522595548	-0.3961337374333257	0.0	0.9427678160332799	-0.36199000531345	0.0	0.8896603960945042	-0.31276716240963204	0.0	0.9956730829196521	-0.3929244062496767	0.0	0.9398572990265027	-0.3614321844719627	0.0	0.8959283882273656	-0.3179271465799617	0.0
20	0.6708860759493671	0.9320936299876409	-0.5189771786597078	0.0	0.9278090786584076	-0.5194264697310403	0.0	0.9808825340283579	-0.6233500908258397	0.0	0.9612765709930492	-0.7324818411435412	0.0	0.9956713962335212	-0.7611091330575457	0.0	0.9846623310185827	-0.7630816871955317	0.0	0.949615587415749	-0.7468198992079313	0.0	0.9298926198333561	-0.516949743344966	0.0	0.9783199654820831	-0.6229202891400568	0.0	0.9622487078848897	-0.7312827081576486	0.0	0.9937218086134709	-0.7603119087327924	0.0	0.9901277353494263	-0.7550419596330813	0.0	0.9453575278386801	-0.7470591379012947	0.0	1.0072570474002105	-0.3964753046159864	0.0	1.0631482886991912	-0.35120046128795285	0.0	1.054605209605578	-0.37685053177969313	0.0	1.0012151832686353	-0.40157404678756664	0.0	0.9391675667751991	-0.3737480377005557	0.0	0.8815655217532229	-0.33324698352727905	0.0	0.9956765359925457	-0.39747984031879846	0.0	0.9361628837815301	-0.37268568024154153	0.0	0.8875807268397856	-0.33810665780675875	0.0
21	0.7044303797468354	0.9294196925397827	-0.5240380113266188	0.0	0.9248418582403567	-0.5241017216882574	0.0	0.984510951524878	-0.6237260119486814	0.0	0.959289865490045	-0.7309917696507179	0.0	0.994733384425673	-0.7593984751292844	0.0	0.9838020146661707	-0.7617934277225601	0.0	0.9470118628446518	-0.7450514312641153	0.0	0.9269914303933169	-0.521211262884366	0.0	0.9819690607258499	-0.6228634104091864	0.0	0.9609399584735191	-0.7287036582629007	0.0	0.9917372415712805	-0.7580046706357177	0.0	0.9885276139840775	-0.7525854783113581	0.0	0.9423893071744179	-0.7435418713746852	0.0	1.007037475754321	-0.40460892256192604	0.0	1.0632342186038357	-0.35642598919561036	0.0	1.0560055073099037	-0.3826550600179413	0.0	1.0006071890861261	-0.41130571438093894	0.0	0.9362637932316595	-0.3932916225968325	0.0	0.8750310585891984	-0.365664176474517	0.0	0.9954755135988264	-0.40629204881409753	0.0	0.9333450854712548	-0.3916620430080195	0.0	0.8806112592131913	-0.3695055410422705	0.0
22	0.7379746835443037	0.9269377187594976	-0.5330850450884552	0.0	0.9225961373247016	-0.532894627726684	0.0	0.9877957849330388	-0.6273216732839167	0.0	0.9569931305263785	-0.7325544205232041	0.0	0.9931171783978914	-0.7600762425199292	0.0	0.9824167591785223	-0.7628077092824452	0.0	0.9441120595194792	-0.7465309927970185	0.0	0.9245361529820771	-0.5296320498859511	0.0	0.9853295435383583	-0.6259803404349099	0.0	0.9591752289536746	-0.7292827178146026	0.0	0.9898819535447948	-0.7580957713753711	0.0	0.986961636712423	-0.7525923461420314	0.0	0.9397099647494431	-0.7433317799163799	0.0	1.006591187405431	-0.4160677963878472	0.0	1.0617833435416757	-0.36494923707375704	0.0	1.0560296058130159	-0.3918033422345479	0.0	1.0000906314288982	-0.4249353424342571	0.0	0.9352767921648873	-0.42045510439916156	0.0	0.8732476895810364	-0.4090194069031898	0.0	0.9948042973108339	-0.4190707123949025	0.0	0.9325444200795482	-0.4178410526835639	0.0	0.8782605031795944	-0.4106439859004037	0.0
23	0.7715189873417722	0.9246007000402322	-0.5460912089209952	0.0	0.9209996976465327	-0.5458602981207342	0.0	0.990393354940645	-0.6349227451670312	0.0	0.9546169346606854	-0.7380783442343076	0.0	0.9910461975810761	-0.7641058284046162	0.0	0.9806706758073258	-0.7670380708697455	0.0	0.9412874444358389	-0.75200900790864	0.0	0.9226206484035766	-0.5423576893261532	0.0	0.9880366879746527	-0.6330378184989998	0.0	0.9570119894654899	-0.7340719335255239	0.0	0.9884864989027655	-0.76160651671913	0.0	0.9857998457531356	-0.7561602623103431	0.0	0.9373740225849694	-0.7475570744837733	0.0	1.005603206093223	-0.43034806438302814	0.0	1.0581376528166044	-0.37645749832159436	0.0	1.0541050521551747	-0.4039440129578512	0.0	0.9992004985256309	-0.4416602097290102	0.0	0.9374778318574948	-0.4539807369212005	0.0	0.8795039440762576	-0.46044691085060435	0.0	0.9935313035683544	-0.4351194038941797	0.0	0.9351498599592327	-0.44979613477131414	0.0	0.8841128642222706	-0.4584199269916956	0.0
24	0.8050632911392405	0.9224057162041311	-0.5627995380699184	0.0	0.9197763242057791	-0.5627046058735656	0.0	0.9919123098257489	-0.6471997779534171	0.0	0.9523950393730747	-0.7482629184834926	0.0	0.9888418859686655	-0.7724770808086163	0.0	0.9788229885161498	-0.7754564288046006	0.0	0.9388846012414718	-0.7619963400357814	0.0	0.9213854436346308	-0.5591888327635538	0.0	0.9897528469929142	-0.6448119772659721	0.0	0.9546677166608711	-0.7438957154002368	0.0	0.9877502015918357	-0.7696727225822523	0.0	0.9851603819831541	-0.7643846326999414	0.0	0.9354740743186082	-0.7569360516503488	0.0	1.0037268937410575	-0.44675583642580274	0.0	1.0519449622707995	-0.39021015624221117	0.0	1.0500685769362155	-0.41830324663256246	0.0	0.997354190655043	-0.46033840720288327	0.0	0.9438794213206592	-0.4910270963984392	0.0	0.8963823847460359	-0.514628921843978	0.0	0.9917586049093432	-0.4535480651955583	0.0	0.9426017563679261	-0.4847583898310801	0.0	0.9012491700489915	-0.5076162633505533	0.0
25	0.8386075949367088	0.920403658588194	-0.582552554734156	0.0	0.9185644325921121	-0.5826818313210871	0.0	0.9919942824631052	-0.6643300488982031	0.0	0.9505749952232364	-0.7632686541062673	0.0	0.9869079266973484	-0.7855709960817072	0.0	0.9772154041416281	-0.7884885081320883	0.0	0.9372133589419521	-0.7765042258770197	0.0	0.9209193032654542	-0.5793906486384308	0.0	0.9901895150692888	-0.6616158570267228	0.0	0.9525067605452991	-0.7589752903075216	0.0	0.987677277254578	-0.7827852602204496	0.0	0.9848507923389732	-0.7777675039528363	0.0	0.9341834128248783	-0.7714606384720099	0.0	1.0006844005724729	-0.4643944112340495	0.0	1.0431563418793912	-0.4051024023074164	0.0	1.0440832347088052	-0.43378357488058283	0.0	0.9940193808002835	-0.4796547315295013	0.0	0.9549244797411571	-0.5271839731729286	0.0	0.9247263835648712	-0.5638708877265421	0.0	0.9897325266602823	-0.4732683654238758	0.0	0.9557431312241281	-0.5184755353199064	0.0	0.9307871317124613	-0.5510748124530168	0.0
26	0.8721518987341772	0.9188619560066958	-0.6040593501067631	0.0	0.9172447140064361	-0.6044698525952653	0.0	0.9904493927899994	-0.6855373937335696	0.0	0.9493547129105601	-0.78232636500728	0.0	0.9856374403353093	-0.8025699570081553	0.0	0.9762091021674815	-0.8054285707642044	0.0	0.9364406964788049	-0.7947113252559586	0.0	0.9212473166319876	-0.6015268683244465	0.0	0.989116091244518	-0.6827311259851291	0.0	0.9508661607221918	-0.778483465447119	0.0	0.9879683712174411	-0.8000767118393424	0.0	0.9844071270509571	-0.7955551881457157	0.0	0.9335943837946509	-0.7901252990984619	0.0	0.996389704646396	-0.48207993745526	0.0	1.0319373503715799	-0.4197248640992545	0.0	1.0364185992177382	-0.4491189730979264	0.0	0.9889271653658274	-0.4982082710929846	0.0	0.9700676164412386	-0.557142524666218	0.0	0.9623078716045808	-0.5993457250202944	0.0	0.9876605959910341	-0.4927545248384453	0.0	0.973898609380318	-0.5458409994781501	0.0	0.9701059217206418	-0.5809600728312156	0.0
27	0.9056962025316455	0.9183898610966211	-0.625259788703308	0.0	0.9162702335998778	-0.6259934829603394	0.0	0.9873996381257306	-0.7087393589561984	0.0	0.9487358863018377	-0.80347931275304	0.0	0.9851833036662024	-0.8214375625765167	0.0	0.9759399492565975	-0.824345667570659	0.0	0.9364124859281422	-0.8148049180398521	0.0	0.9225408782064779	-0.6233803506422844	0.0	0.9865357551662078	-0.7060786325521957	0.0	0.9498350587574401	-0.8003077275809144	0.0	0.9880443288071117	-0.8193729995068525	0.0	0.9833109182504634	-0.8155628296997041	0.0	0.933587014934039	-0.8108490723478022	0.0	0.9909382103340421	-0.49817596943555026	0.0	1.018547680301393	-0.43249463537782046	0.0	1.0272893886384704	-0.4628004138905499	0.0	0.9822890035851355	-0.5143915557427662	0.0	0.9873950343885368	-0.5758591619752894	0.0	1.0030222186893718	-0.6135449280860154	0.0	0.9854444775859228	-0.5099035339190723	0.0	0.9942179124694773	-0.5622011084648558	0.0	1.012083791422253	-0.5910582921549672	0.0
28	0.9392405063291138	0.9196392198027935	-0.6433825842135181	0.0	0.9165402043379826	-0.6443641186497038	0.0	0.9833787305282375	-0.7306342638500858	0.0	0.9484968396400909	-0.823695972616891	0.0	0.9851573451415674	-0.8394075232480135	0.0	0.9760137860081622	-0.8424595059590221	0.0	0.936718051203258	-0.834073144420353	0.0	0.9250565431873309	-0.6420080388852508	0.0	0.9828829388647056	-0.7283224545264767	0.0	0.9492292049710511	-0.8212338801243978	0.0	0.9873403938676212	-0.8377995694427587	0.0	0.9813089805672238	-0.8346501621167	0.0	0.9338873008627251	-0.830620020722675	0.0	0.9844036015288327	-0.5105879380899148	0.0	1.003257862244236	-0.44181525082655165	0.0	1.0167858148678475	-0.47293957113293666	0.0	0.9747473830817992	-0.5263049119017105	0.0	1.0036899817353893	-0.5799095000386567	0.0	1.0381754238104357	-0.6031807453616507	0.0	0.982392736088202	-0.5222928702427279	0.0	1.0121227201227776	-0.5648321379465205	0.0	1.047007887022388	-0.5793762908735908	0.0
